<svg xmlns="http://www.w3.org/2000/svg" viewBox="0 0 4500 5400" width="4500" height="5400">
<text x="2290.0" y="752.8" font-family="Alfa Slab One" font-size="420.3" fill="#D35400" text-anchor="middle" >GOBBLE GOBBLE</text>
<text x="2250.0" y="712.8" font-family="Alfa Slab One" font-size="420.3" fill="#5B3A29" text-anchor="middle" >GOBBLE GOBBLE</text>
<ellipse cx="1671" cy="2037" rx="202" ry="532" transform="rotate(-80 1671 2037)" fill="#C0392B" stroke="#5B3A29" stroke-width="40"/>
<ellipse cx="1778" cy="1788" rx="202" ry="532" transform="rotate(-53 1778 1788)" fill="#E67E22" stroke="#5B3A29" stroke-width="40"/>
<ellipse cx="1986" cy="1613" rx="202" ry="532" transform="rotate(-27 1986 1613)" fill="#F4D03F" stroke="#5B3A29" stroke-width="40"/>
<ellipse cx="2250" cy="1551" rx="202" ry="532" transform="rotate(0 2250 1551)" fill="#8E5B3E" stroke="#5B3A29" stroke-width="40"/>
<ellipse cx="2514" cy="1613" rx="202" ry="532" transform="rotate(27 2514 1613)" fill="#E67E22" stroke="#5B3A29" stroke-width="40"/>
<ellipse cx="2722" cy="1788" rx="202" ry="532" transform="rotate(53 2722 1788)" fill="#C0392B" stroke="#5B3A29" stroke-width="40"/>
<ellipse cx="2829" cy="2037" rx="202" ry="532" transform="rotate(80 2829 2037)" fill="#F4D03F" stroke="#5B3A29" stroke-width="40"/>
<circle cx="2250" cy="2138.7" r="590.0" fill="#5B3A29"/>
<circle cx="2250" cy="2138.7" r="560" fill="#D9F03C"/>
<circle cx="2250.0" cy="2138.7" r="47.6" fill="#9FB82A"/>
<circle cx="2453.7" cy="2256.3" r="47.6" fill="#9FB82A"/>
<circle cx="2250.0" cy="2373.9" r="47.6" fill="#9FB82A"/>
<circle cx="2046.3" cy="2256.3" r="47.6" fill="#9FB82A"/>
<circle cx="2046.3" cy="2021.1" r="47.6" fill="#9FB82A"/>
<circle cx="2250.0" cy="1903.5" r="47.6" fill="#9FB82A"/>
<circle cx="2453.7" cy="2021.1" r="47.6" fill="#9FB82A"/>
<circle cx="2675.6" cy="2138.7" r="47.6" fill="#9FB82A"/>
<circle cx="2618.6" cy="2351.5" r="47.6" fill="#9FB82A"/>
<circle cx="2462.8" cy="2507.3" r="47.6" fill="#9FB82A"/>
<circle cx="2250.0" cy="2564.3" r="47.6" fill="#9FB82A"/>
<circle cx="2037.2" cy="2507.3" r="47.6" fill="#9FB82A"/>
<circle cx="1881.4" cy="2351.5" r="47.6" fill="#9FB82A"/>
<circle cx="1824.4" cy="2138.7" r="47.6" fill="#9FB82A"/>
<circle cx="1881.4" cy="1925.9" r="47.6" fill="#9FB82A"/>
<circle cx="2037.2" cy="1770.1" r="47.6" fill="#9FB82A"/>
<circle cx="2250.0" cy="1713.1" r="47.6" fill="#9FB82A"/>
<circle cx="2462.8" cy="1770.1" r="47.6" fill="#9FB82A"/>
<circle cx="2618.6" cy="1925.9" r="47.6" fill="#9FB82A"/>
<path d="M1813.2 2054.7 A448.0 448.0 0 0 1 2166.0 1701.9" fill="none" stroke="#ffffff" stroke-opacity="0.45" stroke-width="39.2" stroke-linecap="round"/>
<circle cx="2082" cy="2055" r="73" fill="#FFFFFF"/><circle cx="2099" cy="2066" r="39" fill="#2B2B2B"/><circle cx="2418" cy="2055" r="73" fill="#FFFFFF"/><circle cx="2435" cy="2066" r="39" fill="#2B2B2B"/>
<polygon points="2172,2167 2328,2167 2250,2307" fill="#F39C12" stroke="#5B3A29" stroke-width="22" stroke-linejoin="round"/>
<path d="M2261 2262 q 67 84 11 213 q -84 -56 -11 -213 Z" fill="#C0392B"/>
<text x="2290.0" y="3480.2" font-family="Alfa Slab One" font-size="618.9" fill="#D35400" text-anchor="middle" >DINK DINK</text>
<text x="2250.0" y="3440.2" font-family="Alfa Slab One" font-size="618.9" fill="#5B3A29" text-anchor="middle" >DINK DINK</text>
<text x="2255.3" y="3827.7" font-family="Bebas Neue" font-size="264.0" fill="#D35400" text-anchor="middle" letter-spacing="10.6" >HAPPY PICKLEBALL THANKSGIVING</text>
</svg>
