<svg xmlns="http://www.w3.org/2000/svg" viewBox="0 0 4500 5400" width="4500" height="5400">
<path d="M330 420 Q2250 1240 4170 420" fill="none" stroke="#F7EEDD" stroke-width="80" stroke-linecap="round"/>
<path d="M330 420 Q2250 1240 4170 420" fill="none" stroke="#D7263D" stroke-width="80" stroke-dasharray="70 70"/>
<line x1="1098.0" y1="682.4" x2="1098.0" y2="902.4" stroke="#E8B547" stroke-width="22"/>
<circle cx="1098.0" cy="877.4" r="45" fill="none" stroke="#E8B547" stroke-width="22"/>
<rect x="1011.6" y="907.4" width="172.8" height="125" rx="20" fill="#E8B547"/>
<circle cx="1098.0" cy="1282.4" r="270" fill="#D9F03C"/>
<circle cx="1098.0" cy="1282.4" r="23.0" fill="#9FB82A"/>
<circle cx="1196.2" cy="1339.1" r="23.0" fill="#9FB82A"/>
<circle cx="1098.0" cy="1395.8" r="23.0" fill="#9FB82A"/>
<circle cx="999.8" cy="1339.1" r="23.0" fill="#9FB82A"/>
<circle cx="999.8" cy="1225.7" r="23.0" fill="#9FB82A"/>
<circle cx="1098.0" cy="1169.0" r="23.0" fill="#9FB82A"/>
<circle cx="1196.2" cy="1225.7" r="23.0" fill="#9FB82A"/>
<circle cx="1303.2" cy="1282.4" r="23.0" fill="#9FB82A"/>
<circle cx="1275.7" cy="1385.0" r="23.0" fill="#9FB82A"/>
<circle cx="1200.6" cy="1460.1" r="23.0" fill="#9FB82A"/>
<circle cx="1098.0" cy="1487.6" r="23.0" fill="#9FB82A"/>
<circle cx="995.4" cy="1460.1" r="23.0" fill="#9FB82A"/>
<circle cx="920.3" cy="1385.0" r="23.0" fill="#9FB82A"/>
<circle cx="892.8" cy="1282.4" r="23.0" fill="#9FB82A"/>
<circle cx="920.3" cy="1179.8" r="23.0" fill="#9FB82A"/>
<circle cx="995.4" cy="1104.7" r="23.0" fill="#9FB82A"/>
<circle cx="1098.0" cy="1077.2" r="23.0" fill="#9FB82A"/>
<circle cx="1200.6" cy="1104.7" r="23.0" fill="#9FB82A"/>
<circle cx="1275.7" cy="1179.8" r="23.0" fill="#9FB82A"/>
<path d="M887.4 1241.9 A216.0 216.0 0 0 1 1057.5 1071.8" fill="none" stroke="#ffffff" stroke-opacity="0.45" stroke-width="18.9" stroke-linecap="round"/>
<line x1="2250.0" y1="830.0" x2="2250.0" y2="1100.0" stroke="#E8B547" stroke-width="22"/>
<circle cx="2250.0" cy="1075.0" r="45" fill="none" stroke="#E8B547" stroke-width="22"/>
<rect x="2141.2" y="1105.0" width="217.6" height="125" rx="20" fill="#E8B547"/>
<circle cx="2250.0" cy="1550.0" r="340" fill="#D9F03C"/>
<circle cx="2250.0" cy="1550.0" r="28.9" fill="#9FB82A"/>
<circle cx="2373.7" cy="1621.4" r="28.9" fill="#9FB82A"/>
<circle cx="2250.0" cy="1692.8" r="28.9" fill="#9FB82A"/>
<circle cx="2126.3" cy="1621.4" r="28.9" fill="#9FB82A"/>
<circle cx="2126.3" cy="1478.6" r="28.9" fill="#9FB82A"/>
<circle cx="2250.0" cy="1407.2" r="28.9" fill="#9FB82A"/>
<circle cx="2373.7" cy="1478.6" r="28.9" fill="#9FB82A"/>
<circle cx="2508.4" cy="1550.0" r="28.9" fill="#9FB82A"/>
<circle cx="2473.8" cy="1679.2" r="28.9" fill="#9FB82A"/>
<circle cx="2379.2" cy="1773.8" r="28.9" fill="#9FB82A"/>
<circle cx="2250.0" cy="1808.4" r="28.9" fill="#9FB82A"/>
<circle cx="2120.8" cy="1773.8" r="28.9" fill="#9FB82A"/>
<circle cx="2026.2" cy="1679.2" r="28.9" fill="#9FB82A"/>
<circle cx="1991.6" cy="1550.0" r="28.9" fill="#9FB82A"/>
<circle cx="2026.2" cy="1420.8" r="28.9" fill="#9FB82A"/>
<circle cx="2120.8" cy="1326.2" r="28.9" fill="#9FB82A"/>
<circle cx="2250.0" cy="1291.6" r="28.9" fill="#9FB82A"/>
<circle cx="2379.2" cy="1326.2" r="28.9" fill="#9FB82A"/>
<circle cx="2473.8" cy="1420.8" r="28.9" fill="#9FB82A"/>
<path d="M1984.8 1499.0 A272.0 272.0 0 0 1 2199.0 1284.8" fill="none" stroke="#ffffff" stroke-opacity="0.45" stroke-width="23.8" stroke-linecap="round"/>
<line x1="3402.0" y1="682.4" x2="3402.0" y2="902.4" stroke="#E8B547" stroke-width="22"/>
<circle cx="3402.0" cy="877.4" r="45" fill="none" stroke="#E8B547" stroke-width="22"/>
<rect x="3315.6" y="907.4" width="172.8" height="125" rx="20" fill="#E8B547"/>
<circle cx="3402.0" cy="1282.4" r="270" fill="#D9F03C"/>
<circle cx="3402.0" cy="1282.4" r="23.0" fill="#9FB82A"/>
<circle cx="3500.2" cy="1339.1" r="23.0" fill="#9FB82A"/>
<circle cx="3402.0" cy="1395.8" r="23.0" fill="#9FB82A"/>
<circle cx="3303.8" cy="1339.1" r="23.0" fill="#9FB82A"/>
<circle cx="3303.8" cy="1225.7" r="23.0" fill="#9FB82A"/>
<circle cx="3402.0" cy="1169.0" r="23.0" fill="#9FB82A"/>
<circle cx="3500.2" cy="1225.7" r="23.0" fill="#9FB82A"/>
<circle cx="3607.2" cy="1282.4" r="23.0" fill="#9FB82A"/>
<circle cx="3579.7" cy="1385.0" r="23.0" fill="#9FB82A"/>
<circle cx="3504.6" cy="1460.1" r="23.0" fill="#9FB82A"/>
<circle cx="3402.0" cy="1487.6" r="23.0" fill="#9FB82A"/>
<circle cx="3299.4" cy="1460.1" r="23.0" fill="#9FB82A"/>
<circle cx="3224.3" cy="1385.0" r="23.0" fill="#9FB82A"/>
<circle cx="3196.8" cy="1282.4" r="23.0" fill="#9FB82A"/>
<circle cx="3224.3" cy="1179.8" r="23.0" fill="#9FB82A"/>
<circle cx="3299.4" cy="1104.7" r="23.0" fill="#9FB82A"/>
<circle cx="3402.0" cy="1077.2" r="23.0" fill="#9FB82A"/>
<circle cx="3504.6" cy="1104.7" r="23.0" fill="#9FB82A"/>
<circle cx="3579.7" cy="1179.8" r="23.0" fill="#9FB82A"/>
<path d="M3191.4 1241.9 A216.0 216.0 0 0 1 3361.5 1071.8" fill="none" stroke="#ffffff" stroke-opacity="0.45" stroke-width="18.9" stroke-linecap="round"/>
<circle cx="270" cy="460" r="70" fill="#7BB661"/><circle cx="390" cy="460" r="70" fill="#7BB661"/>
<circle cx="330" cy="410" r="62" fill="#D7263D"/>
<circle cx="4110" cy="460" r="70" fill="#7BB661"/><circle cx="4230" cy="460" r="70" fill="#7BB661"/>
<circle cx="4170" cy="410" r="62" fill="#D7263D"/>
<text x="2305.0" y="2940.1" font-family="Alfa Slab One" font-size="1266.2" fill="#D7263D" text-anchor="middle" >DINK</text>
<text x="2250.0" y="2885.1" font-family="Alfa Slab One" font-size="1266.2" fill="#F7EEDD" text-anchor="middle" >DINK</text>
<text x="2282.0" y="3587.9" font-family="Alfa Slab One" font-size="607.1" fill="#D7263D" text-anchor="middle" >THE HALLS</text>
<text x="2250.0" y="3555.9" font-family="Alfa Slab One" font-size="607.1" fill="#F7EEDD" text-anchor="middle" >THE HALLS</text>
<text x="2259.0" y="3999.7" font-family="Bebas Neue" font-size="301.1" fill="#D9F03C" text-anchor="middle" letter-spacing="18.1" >MERRY PICKLEBALL SEASON</text>
<polygon points="710.0,3797.8 735.1,3858.2 800.4,3863.4 750.7,3906.0 765.8,3969.7 710.0,3935.6 654.2,3969.7 669.3,3906.0 619.6,3863.4 684.9,3858.2" fill="#E8B547"/>
<polygon points="3790.0,3797.8 3815.1,3858.2 3880.4,3863.4 3830.7,3906.0 3845.8,3969.7 3790.0,3935.6 3734.2,3969.7 3749.3,3906.0 3699.6,3863.4 3764.9,3858.2" fill="#E8B547"/>
</svg>
