<svg xmlns="http://www.w3.org/2000/svg" viewBox="0 0 4500 5400" width="4500" height="5400">
<text x="2250.0" y="1099.8" font-family="Anton" font-size="783.1" fill="#D9F03C" text-anchor="middle" >BORN TO DINK</text>
<rect x="300" y="1464.1" width="1550" height="44" rx="22" fill="#F5EFE3"/>
<rect x="2650" y="1464.1" width="1550" height="44" rx="22" fill="#F5EFE3"/>
<circle cx="2250" cy="1486.1" r="250" fill="#D9F03C"/>
<circle cx="2250.0" cy="1486.1" r="21.2" fill="#9FB82A"/>
<circle cx="2340.9" cy="1538.6" r="21.2" fill="#9FB82A"/>
<circle cx="2250.0" cy="1591.1" r="21.2" fill="#9FB82A"/>
<circle cx="2159.1" cy="1538.6" r="21.2" fill="#9FB82A"/>
<circle cx="2159.1" cy="1433.6" r="21.2" fill="#9FB82A"/>
<circle cx="2250.0" cy="1381.1" r="21.2" fill="#9FB82A"/>
<circle cx="2340.9" cy="1433.6" r="21.2" fill="#9FB82A"/>
<circle cx="2440.0" cy="1486.1" r="21.2" fill="#9FB82A"/>
<circle cx="2414.5" cy="1581.1" r="21.2" fill="#9FB82A"/>
<circle cx="2345.0" cy="1650.6" r="21.2" fill="#9FB82A"/>
<circle cx="2250.0" cy="1676.1" r="21.2" fill="#9FB82A"/>
<circle cx="2155.0" cy="1650.6" r="21.2" fill="#9FB82A"/>
<circle cx="2085.5" cy="1581.1" r="21.2" fill="#9FB82A"/>
<circle cx="2060.0" cy="1486.1" r="21.2" fill="#9FB82A"/>
<circle cx="2085.5" cy="1391.1" r="21.2" fill="#9FB82A"/>
<circle cx="2155.0" cy="1321.6" r="21.2" fill="#9FB82A"/>
<circle cx="2250.0" cy="1296.1" r="21.2" fill="#9FB82A"/>
<circle cx="2345.0" cy="1321.6" r="21.2" fill="#9FB82A"/>
<circle cx="2414.5" cy="1391.1" r="21.2" fill="#9FB82A"/>
<path d="M2055.0 1448.6 A200.0 200.0 0 0 1 2212.5 1291.1" fill="none" stroke="#ffffff" stroke-opacity="0.45" stroke-width="17.5" stroke-linecap="round"/>
<text x="2250.0" y="2408.7" font-family="Anton" font-size="625.2" fill="#F5EFE3" text-anchor="middle" >FORCED TO WORK</text>
</svg>
